# xmcd
#
# Track frame offsets:
# 150
# 13597
# 25997
# 39700
# 53245
# 66910
# 76897
# 89002
# 98724
# 110769
# 123604
# 137382
# 151640
# 166690
# 178865
# 192518
# 207110
# 220053
# 231810
# 244367
# 258682
# 274529
# 288417
# 303382
# 315980
#
# Disc length: 4371 seconds
#
#
# Revision: 0
# Processed by: cddbd v1.5.1PL0 Copyright (c) Steve Scherf et al.
# Submitted via: FreeRIP 2.90 
#
DISCID=61111119
DTITLE=Howlin' Wolf - A Proper Introduction to
DYEAR=2001
DGENRE=Blues
TTITLE0=Moanin' At Midnight
TTITLE1=How Many More Years
TTITLE2=The Wolf is at Your Door
TTITLE3=California Blues
TTITLE4=California Boogie
TTITLE5=Look-a-here baby
TTITLE6=Howlin' Wolf Boogie
TTITLE7=Smile At Me
TTITLE8=Getting Old and Gray
TTITLE9=Mr. Highway Man
TTITLE10=Mr Baby Walked Off
TTITLE11=Drinkin' C.V. Wine
TTITLE12=My Troubles and Me
TTITLE13=Chocolate Drop
TTITLE14=Everybody's in the Mood
TTITLE15=Color and Kind
TTITLE16=Bluebird
TTITLE17=Saddle My Pony
TTITLE18=Dorothy Mae (Take I)
TTITLE19=Worried All the Time
TTITLE20=Sweet Woman
TTITLE21=Well That's Alright
TTITLE22=Decoration Day
TTITLE23=Oh! Red
TTITLE24=Stay Here Till My Baby Comes Back
EXTD=
EXTT0=
EXTT1=
EXTT2=
EXTT3=
EXTT4=
EXTT5=
EXTT6=
EXTT7=
EXTT8=
EXTT9=
EXTT10=
EXTT11=
EXTT12=
EXTT13=
EXTT14=
EXTT15=
EXTT16=
EXTT17=
EXTT18=
EXTT19=
EXTT20=
EXTT21=
EXTT22=
EXTT23=
EXTT24=
PLAYORDER=
